<svg width="425" height="385" viewBox="0 0 425 385" fill="none" xmlns="http://www.w3.org/2000/svg">
<path d="M6 46C6 23.9086 23.9086 6 46 6H278.5C300.591 6 318.5 23.9086 318.5 46V48.3942C318.5 81.5313 345.663 108.394 378.8 108.394C400.891 108.394 419 126.303 419 148.394V338.343C419 360.434 401.091 378.343 379 378.343H46C23.9086 378.343 6 360.434 6 338.343V46Z" fill="white" fill-opacity="0.1"/>
<path d="M278.5 3C302.248 3 321.5 22.2518 321.5 46V48.3945C321.5 79.8551 347.3 105.394 378.8 105.395C402.529 105.395 422 124.627 422 148.395V338.343C422 362.091 402.748 381.343 379 381.343H46C22.2518 381.343 3.00012 362.091 3 338.343V46C3 22.2518 22.2518 3 46 3H278.5Z" stroke="white" stroke-opacity="0.2" stroke-width="6"/>
</svg>
